
Download
<svg xmlns="http://www.w3.org/2000/svg" viewBox="0 0 1440 320">
  <path fill="#0099ff" fill-opacity="1" d="M0,256L13.3,218.7C26.7,181,53,107,80,96C106.7,85,133,139,160,165.3C186.7,192,213,192,240,170.7C266.7,149,293,107,320,122.7C346.7,139,373,213,400,218.7C426.7,224,453,160,480,112C506.7,64,533,32,560,64C586.7,96,613,192,640,208C666.7,224,693,160,720,122.7C746.7,85,773,75,800,74.7C826.7,75,853,85,880,74.7C906.7,64,933,32,960,32C986.7,32,1013,64,1040,80C1066.7,96,1093,96,1120,85.3C1146.7,75,1173,53,1200,85.3C1226.7,117,1253,203,1280,240C1306.7,277,1333,267,1360,266.7C1386.7,267,1413,277,1427,282.7L1440,288L1440,0L1426.7,0C1413.3,0,1387,0,1360,0C1333.3,0,1307,0,1280,0C1253.3,0,1227,0,1200,0C1173.3,0,1147,0,1120,0C1093.3,0,1067,0,1040,0C1013.3,0,987,0,960,0C933.3,0,907,0,880,0C853.3,0,827,0,800,0C773.3,0,747,0,720,0C693.3,0,667,0,640,0C613.3,0,587,0,560,0C533.3,0,507,0,480,0C453.3,0,427,0,400,0C373.3,0,347,0,320,0C293.3,0,267,0,240,0C213.3,0,187,0,160,0C133.3,0,107,0,80,0C53.3,0,27,0,13,0L0,0Z"></path>
</svg>