<?xml version="1.0" standalone="no"?><svg xmlns="http://www.w3.org/2000/svg" viewBox="0 0 1440 320"><path fill="#ffd700" fill-opacity="1" d="M0,0L16,26.7C32,53,64,107,96,128C128,149,160,139,192,154.7C224,171,256,213,288,234.7C320,256,352,256,384,224C416,192,448,128,480,85.3C512,43,544,21,576,16C608,11,640,21,672,48C704,75,736,117,768,117.3C800,117,832,75,864,90.7C896,107,928,181,960,192C992,203,1024,149,1056,117.3C1088,85,1120,75,1152,69.3C1184,64,1216,64,1248,69.3C1280,75,1312,85,1344,74.7C1376,64,1408,32,1424,16L1440,0L1440,320L1424,320C1408,320,1376,320,1344,320C1312,320,1280,320,1248,320C1216,320,1184,320,1152,320C1120,320,1088,320,1056,320C1024,320,992,320,960,320C928,320,896,320,864,320C832,320,800,320,768,320C736,320,704,320,672,320C640,320,608,320,576,320C544,320,512,320,480,320C448,320,416,320,384,320C352,320,320,320,288,320C256,320,224,320,192,320C160,320,128,320,96,320C64,320,32,320,16,320L0,320Z"></path></svg>